<svg width="18" height="18" viewBox="0 0 18 18" fill="none" xmlns="http://www.w3.org/2000/svg">
<path d="M4.00033 0.866943C2.15938 0.866943 0.666992 2.35933 0.666992 4.20028V5.86694C0.666992 6.32718 1.04009 6.70028 1.50033 6.70028C1.96056 6.70028 2.33366 6.32718 2.33366 5.86694V4.20028C2.33366 3.2798 3.07985 2.53361 4.00033 2.53361H5.66699C6.12723 2.53361 6.50033 2.16051 6.50033 1.70028C6.50033 1.24004 6.12723 0.866943 5.66699 0.866943H4.00033Z" fill="#667185"/>
<path d="M14.0003 0.866943C15.8413 0.866943 17.3337 2.35933 17.3337 4.20028V5.86694C17.3337 6.32718 16.9606 6.70028 16.5003 6.70028C16.0401 6.70028 15.667 6.32718 15.667 5.86694V4.20028C15.667 3.2798 14.9208 2.53361 14.0003 2.53361H12.3337C11.8734 2.53361 11.5003 2.16051 11.5003 1.70028C11.5003 1.24004 11.8734 0.866943 12.3337 0.866943H14.0003Z" fill="#667185"/>
<path d="M0.666992 14.2003C0.666992 16.0412 2.15938 17.5336 4.00033 17.5336H5.66699C6.12723 17.5336 6.50033 17.1605 6.50033 16.7003C6.50033 16.24 6.12723 15.8669 5.66699 15.8669H4.00033C3.07985 15.8669 2.33366 15.1208 2.33366 14.2003V12.5336C2.33366 12.0734 1.96056 11.7003 1.50033 11.7003C1.04009 11.7003 0.666992 12.0734 0.666992 12.5336V14.2003Z" fill="#667185"/>
<path d="M14.0003 17.5336C15.8413 17.5336 17.3337 16.0412 17.3337 14.2003V12.5336C17.3337 12.0734 16.9606 11.7003 16.5003 11.7003C16.0401 11.7003 15.667 12.0734 15.667 12.5336V14.2003C15.667 15.1208 14.9208 15.8669 14.0003 15.8669H12.3337C11.8734 15.8669 11.5003 16.24 11.5003 16.7003C11.5003 17.1605 11.8734 17.5336 12.3337 17.5336H14.0003Z" fill="#667185"/>
<path d="M4.62533 6.07528C4.62533 6.65057 5.0917 7.11694 5.66699 7.11694C6.24229 7.11694 6.70866 6.65057 6.70866 6.07528C6.70866 5.49998 6.24229 5.03361 5.66699 5.03361C5.0917 5.03361 4.62533 5.49998 4.62533 6.07528Z" fill="#667185"/>
<path d="M12.3337 7.11694C11.7584 7.11694 11.292 6.65057 11.292 6.07528C11.292 5.49998 11.7584 5.03361 12.3337 5.03361C12.909 5.03361 13.3753 5.49998 13.3753 6.07528C13.3753 6.65057 12.909 7.11694 12.3337 7.11694Z" fill="#667185"/>
<path d="M6.5883 12.1609C6.79413 11.7493 7.29469 11.5824 7.70634 11.7883C8.52092 12.1955 9.47973 12.1955 10.2943 11.7883C10.706 11.5824 11.2065 11.7493 11.4123 12.1609C11.6182 12.5726 11.4513 13.0731 11.0397 13.279C9.75587 13.9209 8.24478 13.9209 6.96098 13.279C6.54933 13.0731 6.38248 12.5726 6.5883 12.1609Z" fill="#667185"/>
<path d="M9.74568 7.5776C9.53986 7.16595 9.0393 6.9991 8.62765 7.20492C8.216 7.41075 8.04915 7.91131 8.25497 8.32295L8.69433 9.20168C8.62393 9.32394 8.58366 9.46574 8.58366 9.61694C8.58366 10.0772 8.95675 10.4503 9.41699 10.4503H9.56399C10.3074 10.4503 10.7909 9.66796 10.4584 9.00306L9.74568 7.5776Z" fill="#667185"/>
</svg>
