<svg width="20" height="16" viewBox="0 0 20 16" fill="none" xmlns="http://www.w3.org/2000/svg">
<path fill-rule="evenodd" clip-rule="evenodd" d="M15.8332 15.7002C17.6742 15.7002 19.1666 14.2078 19.1666 12.3669V4.88577C19.1669 4.87302 19.1669 4.86024 19.1666 4.84745V4.03353C19.1666 2.19258 17.6742 0.700195 15.8332 0.700195H4.16656C2.32561 0.700195 0.833229 2.19258 0.833229 4.03353V4.84745C0.832933 4.86025 0.832935 4.87302 0.833229 4.88576V12.3669C0.833229 14.2078 2.32561 15.7002 4.16656 15.7002H15.8332ZM2.4999 12.3669C2.4999 13.2873 3.24609 14.0335 4.16656 14.0335H15.8332C16.7537 14.0335 17.4999 13.2873 17.4999 12.3669V6.09772L11.2379 8.60253C10.4432 8.92042 9.55663 8.92042 8.76193 8.60253L2.4999 6.09772V12.3669ZM10.6189 7.05507L17.4999 4.30267V4.03353C17.4999 3.11305 16.7537 2.36686 15.8332 2.36686H4.16656C3.24609 2.36686 2.4999 3.11305 2.4999 4.03353V4.30267L9.38091 7.05507C9.77826 7.21402 10.2215 7.21402 10.6189 7.05507Z" fill="#667185"/>
</svg>
