<svg width="14" height="14" viewBox="0 0 14 14" fill="none" xmlns="http://www.w3.org/2000/svg">
<path d="M6.9999 2.1001C8.6499 2.1001 8.8749 2.1001 9.5499 2.1001C10.1499 2.1001 10.4499 2.2501 10.6749 2.3251C10.9749 2.4751 11.1999 2.5501 11.4249 2.7751C11.6499 3.0001 11.7999 3.2251 11.8749 3.5251C11.9499 3.7501 12.0249 4.0501 12.0999 4.6501C12.0999 5.3251 12.0999 5.4751 12.0999 7.2001C12.0999 8.9251 12.0999 9.0751 12.0999 9.7501C12.0999 10.3501 11.9499 10.6501 11.8749 10.8751C11.7249 11.1751 11.6499 11.4001 11.4249 11.6251C11.1999 11.8501 10.9749 12.0001 10.6749 12.0751C10.4499 12.1501 10.1499 12.2251 9.5499 12.3001C8.8749 12.3001 8.7249 12.3001 6.9999 12.3001C5.2749 12.3001 5.1249 12.3001 4.4499 12.3001C3.8499 12.3001 3.5499 12.1501 3.3249 12.0751C3.0249 11.9251 2.7999 11.8501 2.5749 11.6251C2.3499 11.4001 2.1999 11.1751 2.1249 10.8751C2.0499 10.6501 1.9749 10.3501 1.8999 9.7501C1.8999 9.0751 1.8999 8.9251 1.8999 7.2001C1.8999 5.4751 1.8999 5.3251 1.8999 4.6501C1.8999 4.0501 2.0499 3.7501 2.1249 3.5251C2.2749 3.2251 2.3499 3.0001 2.5749 2.7751C2.7999 2.5501 3.0249 2.4001 3.3249 2.3251C3.5499 2.2501 3.8499 2.1751 4.4499 2.1001C5.1249 2.1001 5.3499 2.1001 6.9999 2.1001ZM6.9999 0.975098C5.2749 0.975098 5.1249 0.975098 4.4499 0.975098C3.7749 0.975098 3.3249 1.1251 2.9499 1.2751C2.5749 1.4251 2.1999 1.6501 1.8249 2.0251C1.4499 2.4001 1.2999 2.7001 1.0749 3.1501C0.924903 3.5251 0.849902 3.9751 0.774902 4.6501C0.774902 5.3251 0.774902 5.5501 0.774902 7.2001C0.774902 8.9251 0.774902 9.0751 0.774902 9.7501C0.774902 10.4251 0.924903 10.8751 1.0749 11.2501C1.2249 11.6251 1.4499 12.0001 1.8249 12.3751C2.1999 12.7501 2.4999 12.9001 2.9499 13.1251C3.3249 13.2751 3.7749 13.3501 4.4499 13.4251C5.1249 13.4251 5.3499 13.4251 6.9999 13.4251C8.6499 13.4251 8.8749 13.4251 9.5499 13.4251C10.2249 13.4251 10.6749 13.2751 11.0499 13.1251C11.4249 12.9751 11.7999 12.7501 12.1749 12.3751C12.5499 12.0001 12.6999 11.7001 12.9249 11.2501C13.0749 10.8751 13.1499 10.4251 13.2249 9.7501C13.2249 9.0751 13.2249 8.8501 13.2249 7.2001C13.2249 5.5501 13.2249 5.3251 13.2249 4.6501C13.2249 3.9751 13.0749 3.5251 12.9249 3.1501C12.7749 2.7751 12.5499 2.4001 12.1749 2.0251C11.7999 1.6501 11.4999 1.5001 11.0499 1.2751C10.6749 1.1251 10.2249 1.0501 9.5499 0.975098C8.8749 0.975098 8.7249 0.975098 6.9999 0.975098Z" fill="white"/>
<path d="M6.9999 3.9751C5.1999 3.9751 3.7749 5.4001 3.7749 7.2001C3.7749 9.0001 5.1999 10.4251 6.9999 10.4251C8.7999 10.4251 10.2249 9.0001 10.2249 7.2001C10.2249 5.4001 8.7999 3.9751 6.9999 3.9751ZM6.9999 9.3001C5.8749 9.3001 4.8999 8.4001 4.8999 7.2001C4.8999 6.0751 5.7999 5.1001 6.9999 5.1001C8.1249 5.1001 9.0999 6.0001 9.0999 7.2001C9.0999 8.3251 8.1249 9.3001 6.9999 9.3001Z" fill="white"/>
<path d="M10.2999 4.6501C10.7141 4.6501 11.0499 4.31431 11.0499 3.9001C11.0499 3.48588 10.7141 3.1501 10.2999 3.1501C9.88569 3.1501 9.5499 3.48588 9.5499 3.9001C9.5499 4.31431 9.88569 4.6501 10.2999 4.6501Z" fill="white"/>
</svg>
