<svg width="12" height="13" viewBox="0 0 12 13" fill="none" xmlns="http://www.w3.org/2000/svg">
<path d="M2.7 12.2002H0.149998V4.1752H2.7V12.2002ZM1.425 3.0502C0.600001 3.0502 0 2.4502 0 1.6252C0 0.800195 0.675001 0.200195 1.425 0.200195C2.25 0.200195 2.85 0.800195 2.85 1.6252C2.85 2.4502 2.25 3.0502 1.425 3.0502ZM12 12.2002H9.45V7.8502C9.45 6.5752 8.925 6.2002 8.175 6.2002C7.425 6.2002 6.675 6.80019 6.675 7.92519V12.2002H4.125V4.1752H6.525V5.3002C6.75 4.7752 7.65 3.9502 8.925 3.9502C10.35 3.9502 11.85 4.7752 11.85 7.2502V12.2002H12Z" fill="white"/>
</svg>
