<svg width="12" height="11" viewBox="0 0 12 11" fill="none" xmlns="http://www.w3.org/2000/svg">
<path d="M12 1.4502C11.55 1.6752 11.1 1.7502 10.575 1.8252C11.1 1.5252 11.475 1.0752 11.625 0.475195C11.175 0.775195 10.65 0.925195 10.05 1.0752C9.6 0.625195 8.925 0.325195 8.25 0.325195C6.675 0.325195 5.475 1.8252 5.85 3.3252C3.825 3.2502 2.025 2.2752 0.75 0.775196C0.075 1.9002 0.45 3.3252 1.5 4.0752C1.125 4.0752 0.75 3.9252 0.375 3.7752C0.375 4.9002 1.2 5.95019 2.325 6.2502C1.95 6.32519 1.575 6.4002 1.2 6.3252C1.5 7.3002 2.4 8.05019 3.525 8.05019C2.625 8.72519 1.275 9.10019 0 8.9502C1.125 9.6252 2.4 10.0752 3.75 10.0752C8.325 10.0752 10.875 6.2502 10.725 2.7252C11.25 2.4252 11.7 1.9752 12 1.4502Z" fill="white"/>
</svg>
